<svg width="28" height="25" viewBox="0 0 28 25" fill="none" xmlns="http://www.w3.org/2000/svg">
<path d="M26 12.5L27 14C27.5 14.5 27.5 14.5 27 15L15.4996 24C14.8539 24.6294 13.4775 24.6294 12.8387 24L0.499888 15C-0.145864 14.3706 -0.145762 14.1227 0.49999 13.5L0.99999 13L1.49999 12.5C1.99999 12 1.99999 12 2.49963 12.5L7.49963 16L12.8387 19.8504V1.00006C12.8387 0.500057 12.8387 0.500057 13.4996 0.500057L14.9996 0.5C15.4996 0.5 15.4996 0.500057 15.4996 1.00006V19.8504L20.4996 16L24.9996 12.5C25.5 12 25.5 12 26 12.5Z" fill="white"/>
</svg>
