<svg width="25" height="23" viewBox="0 0 25 23" fill="none" xmlns="http://www.w3.org/2000/svg">
<path d="M24.9934 11.4775C24.9934 12.2861 24.3423 12.9195 23.6044 12.9195H22.2154L22.2458 20.116C22.2458 20.2373 22.2371 20.3586 22.2241 20.4799V21.2031C22.2241 22.1959 21.4471 23 20.4879 23H19.7934C19.7456 23 19.6979 23 19.6501 22.9955C19.5893 23 19.5286 23 19.4678 23H18.0571H17.0153C16.0561 23 15.2791 22.1959 15.2791 21.2031V20.125V17.25C15.2791 16.4549 14.6584 15.8125 13.8901 15.8125H11.1121C10.3438 15.8125 9.72305 16.4549 9.72305 17.25V20.125V21.2031C9.72305 22.1959 8.94607 23 7.98679 23H6.94504H5.56037C5.49526 23 5.43015 22.9955 5.36504 22.991C5.31295 22.9955 5.26086 23 5.20878 23H4.51427C3.55499 23 2.77801 22.1959 2.77801 21.2031V16.1719C2.77801 16.1314 2.77801 16.0865 2.78235 16.0461V12.9195H1.38901C0.607691 12.9195 0 12.2906 0 11.4775C0 11.0732 0.130219 10.7139 0.434065 10.3994L11.5635 0.359375C11.8673 0.0449219 12.2146 0 12.5184 0C12.8223 0 13.1695 0.0898438 13.43 0.314453L24.516 10.3994C24.8632 10.7139 25.0369 11.0732 24.9934 11.4775Z" fill="white"/>
</svg>
