<svg width="23" height="25" viewBox="0 0 23 25" fill="none" xmlns="http://www.w3.org/2000/svg">
<path id="Vector" d="M4.92857 0C2.20759 0 0 2.09961 0 4.6875V20.3125C0 22.9004 2.20759 25 4.92857 25H19.7143H21.3571C22.2658 25 23 24.3018 23 23.4375C23 22.5732 22.2658 21.875 21.3571 21.875V18.75C22.2658 18.75 23 18.0518 23 17.1875V1.5625C23 0.698242 22.2658 0 21.3571 0H19.7143H4.92857ZM4.92857 18.75H18.0714V21.875H4.92857C4.01987 21.875 3.28571 21.1768 3.28571 20.3125C3.28571 19.4482 4.01987 18.75 4.92857 18.75ZM6.57143 7.03125C6.57143 6.60156 6.94107 6.25 7.39286 6.25H17.25C17.7018 6.25 18.0714 6.60156 18.0714 7.03125C18.0714 7.46094 17.7018 7.8125 17.25 7.8125H7.39286C6.94107 7.8125 6.57143 7.46094 6.57143 7.03125ZM7.39286 9.375H17.25C17.7018 9.375 18.0714 9.72656 18.0714 10.1562C18.0714 10.5859 17.7018 10.9375 17.25 10.9375H7.39286C6.94107 10.9375 6.57143 10.5859 6.57143 10.1562C6.57143 9.72656 6.94107 9.375 7.39286 9.375Z" fill="white"/>
</svg>
